<?xml version="1.0" encoding="UTF-8" standalone="no"?>
<!-- Created with Inkscape (http://www.inkscape.org/) -->

<svg
        xmlns:dc="http://purl.org/dc/elements/1.1/"
        xmlns:cc="http://creativecommons.org/ns#"
        xmlns:rdf="http://www.w3.org/1999/02/22-rdf-syntax-ns#"
        xmlns="http://www.w3.org/2000/svg"
        xmlns:sodipodi="http://sodipodi.sourceforge.net/DTD/sodipodi-0.dtd"
        xmlns:inkscape="http://www.inkscape.org/namespaces/inkscape"
        width="100mm"
        height="100mm"
        viewBox="0 0 100 100"
        version="1.1"
        id="svg8"
        inkscape:version="0.92.0 r15299"
        sodipodi:docname="radio_on.svg">
    <defs
            id="defs2"/>
    <sodipodi:namedview
            id="base"
            pagecolor="#ffffff"
            bordercolor="#666666"
            borderopacity="1.0"
            inkscape:pageopacity="0.0"
            inkscape:pageshadow="2"
            inkscape:zoom="0.98994949"
            inkscape:cx="130.41288"
            inkscape:cy="187.29153"
            inkscape:document-units="mm"
            inkscape:current-layer="layer1"
            showgrid="false"
            inkscape:pagecheckerboard="true"
            fit-margin-top="0"
            fit-margin-left="0"
            fit-margin-right="0"
            fit-margin-bottom="0"
            inkscape:window-width="1366"
            inkscape:window-height="715"
            inkscape:window-x="-8"
            inkscape:window-y="-8"
            inkscape:window-maximized="1"/>
    <metadata
            id="metadata5">
        <rdf:RDF>
            <cc:Work
                    rdf:about="">
                <dc:format>image/svg+xml</dc:format>
                <dc:type
                        rdf:resource="http://purl.org/dc/dcmitype/StillImage"/>
                <dc:title></dc:title>
            </cc:Work>
        </rdf:RDF>
    </metadata>
    <g
            inkscape:label="Vrstva 1"
            inkscape:groupmode="layer"
            id="layer1"
            transform="translate(0,-197)">
        <path
                style="opacity:1;fill:#ffffff;fill-opacity:1;stroke-width:2.38358235"
                d="M 188.97656 0 A 188.97638 188.97638 0 0 0 0 188.97656 A 188.97638 188.97638 0 0 0 188.97656 377.95312 A 188.97638 188.97638 0 0 0 377.95312 188.97656 A 188.97638 188.97638 0 0 0 188.97656 0 z M 188.97656 56.693359 A 132.28346 132.28346 0 0 1 321.25977 188.97656 A 132.28346 132.28346 0 0 1 188.97656 321.25977 A 132.28346 132.28346 0 0 1 56.693359 188.97656 A 132.28346 132.28346 0 0 1 188.97656 56.693359 z "
                transform="matrix(0.26458333,0,0,0.26458333,0,197)"
                id="path4485"/>
        <circle
                style="opacity:1;fill:#ffffff;fill-opacity:1;stroke-width:0.26132867"
                id="path8"
                cx="50"
                cy="247"
                r="15"/>
    </g>
</svg>
