<?xml version="1.0" encoding="utf-8"?>
<!-- Generator: Adobe Illustrator 18.0.0, SVG Export Plug-In . SVG Version: 6.00 Build 0)  -->
<!DOCTYPE svg PUBLIC "-//W3C//DTD SVG 1.1//EN" "http://www.w3.org/Graphics/SVG/1.1/DTD/svg11.dtd">
<svg version="1.1" id="Vrstva_1" xmlns="http://www.w3.org/2000/svg"  x="0px" y="0px"
	 viewBox="0 0 200 200" enable-background="new 0 0 200 200" xml:space="preserve">
<path fill="#FFFFFF" d="M197.2,88.8L168.5,79c-1.3-4.2-2.9-8.2-4.9-12c4.6-9.5,12.1-24.8,13.2-26.8c0.6-1.1,1-4.1-0.1-5.2
	c0,0-7.6-7.6-10.8-10.8c-1-1-3.6-1.2-4.6-0.7L134.2,37c-3.9-2.1-8-3.9-12.3-5.2c-3.4-10-8.9-26-9.5-28.2c-0.4-1.2-2.1-3.6-3.7-3.6
	c0,0-10.7,0-15.2,0C92,0,90,1.7,89.7,2.8L80,31.2c-4.4,1.3-8.7,3-12.8,5.1c-9.5-4.7-24.1-11.8-26.1-12.9c-1.1-0.6-4.1-1-5.2,0.1
	c0,0-7.6,7.6-10.8,10.8c-1,1-1.2,3.6-0.7,4.6l12.9,26.2c-2.5,4.4-4.5,9.1-6,14c-10,3.4-25.7,8.8-27.9,9.4C2.4,88.8,0,90.6,0,92.2
	c0,0,0,10.7,0,15.2c0,1.4,1.7,3.4,2.8,3.7l28.7,9.8c1.4,4.7,3.3,9.2,5.6,13.4c-4.7,9.5-11.8,24-12.8,26c-0.6,1.1-1,4.1,0.1,5.2
	c0,0,7.6,7.6,10.8,10.8c1,1,3.6,1.2,4.6,0.7L67,163.6c4.1,2.2,8.5,3.9,13.1,5.2c3.4,10,8.7,25.4,9.3,27.6c0.4,1.2,2.1,3.6,3.7,3.6
	c0,0,10.7,0,15.2,0c1.4,0,3.4-1.7,3.7-2.8l9.9-29c4.4-1.4,8.6-3.2,12.6-5.4c9.5,4.6,24.7,12.1,26.7,13.2c1.1,0.6,4.1,1,5.2-0.1
	c0,0,7.6-7.6,10.8-10.8c1-1,1.2-3.6,0.7-4.6L164,132.3c1.8-3.6,3.4-7.4,4.6-11.3c10-3.4,25.7-8.8,27.9-9.4c1.2-0.4,3.6-2.1,3.6-3.7
	c0,0,0-10.7,0-15.2C200,91.1,198.3,89.1,197.2,88.8z M100,148.7c-26.9,0-48.7-21.8-48.7-48.7c0-26.9,21.8-48.7,48.7-48.7
	s48.7,21.8,48.7,48.7C148.7,126.9,126.9,148.7,100,148.7z"/>
</svg>
